<?xml version="1.0" standalone="no"?>
<!DOCTYPE svg PUBLIC "-//W3C//DTD SVG 20010904//EN"
 "http://www.w3.org/TR/2001/REC-SVG-20010904/DTD/svg10.dtd">
<svg version="1.0" xmlns="http://www.w3.org/2000/svg"
 width="1000.000000pt" height="1000.000000pt" viewBox="0 0 1000.000000 1000.000000"
 preserveAspectRatio="xMidYMid meet">

<g transform="translate(0.000000,1000.000000) scale(0.100000,-0.100000)"
fill="#FFFFFF" stroke="none">
<path d="M5469 6828 c-143 -177 -322 -379 -430 -487 -246 -245 -615 -515 -911
-667 -59 -30 -110 -59 -114 -66 -4 -6 7 -24 26 -41 27 -24 39 -28 69 -24 188
27 276 30 540 17 149 -8 271 -16 271 -20 0 -4 -42 -53 -93 -111 l-94 -104 -84
-27 c-223 -71 -424 -101 -694 -102 -113 0 -231 5 -271 12 -140 23 -509 62
-703 73 -582 33 -1079 -108 -1233 -350 -24 -39 -28 -55 -28 -121 0 -65 3 -80
21 -96 19 -17 23 -17 47 -3 36 20 38 42 8 82 -47 61 -31 113 60 196 75 69 176
124 304 165 272 89 541 107 935 62 716 -80 910 -87 1215 -42 96 14 215 37 265
50 49 14 91 24 92 23 1 -1 -21 -32 -49 -67 -81 -104 -177 -254 -204 -321 -29
-72 -33 -148 -10 -184 24 -36 31 -31 31 23 0 38 8 61 42 117 62 104 116 176
110 145 -14 -64 -18 -241 -8 -315 15 -105 45 -164 94 -188 47 -24 76 -17 127
29 43 39 110 167 155 297 15 43 29 76 30 75 1 -2 -2 -54 -8 -117 -17 -189 14
-333 81 -377 41 -27 112 -23 160 8 46 31 115 130 172 250 l41 85 75 5 c60 4
89 12 152 43 64 32 97 58 197 158 138 137 172 163 298 222 108 50 185 77 316
110 206 52 246 56 681 65 543 11 699 30 944 111 198 66 332 143 423 241 72 79
88 135 67 232 -12 51 -36 67 -63 42 -28 -25 -26 -47 4 -76 35 -33 34 -85 -3
-136 -104 -143 -321 -255 -617 -320 -123 -27 -181 -31 -715 -44 -226 -6 -417
-16 -480 -25 -234 -33 -522 -122 -658 -203 -93 -56 -177 -130 -195 -173 -18
-46 -129 -139 -216 -182 -46 -22 -82 -32 -128 -35 -34 -3 -63 -2 -63 0 0 3 9
31 20 63 31 90 53 223 47 291 -9 118 -58 172 -143 159 -117 -17 -185 -174
-139 -316 21 -65 79 -146 129 -179 44 -30 43 -36 -19 -165 -51 -107 -101 -175
-150 -205 -49 -31 -81 -21 -94 28 -17 59 -13 252 9 442 12 96 24 207 27 247 6
71 5 72 -21 84 -23 11 -30 10 -54 -8 -21 -16 -35 -45 -65 -144 -132 -430 -179
-534 -251 -559 -26 -9 -33 -7 -51 10 -37 38 -23 310 31 576 4 21 1 36 -10 46
-14 15 -7 26 77 124 84 98 114 128 186 186 11 10 21 26 21 36 0 10 15 33 34
51 32 31 37 32 152 41 65 6 156 19 202 30 109 26 244 88 240 109 -6 28 -35 23
-82 -12 -25 -19 -73 -44 -108 -56 -76 -24 -213 -43 -285 -39 l-53 3 271 280
c297 307 501 533 496 550 -2 5 -16 14 -31 20 -26 9 -39 -2 -325 -290 -163
-165 -354 -360 -424 -433 l-126 -133 -243 12 c-134 6 -304 8 -378 5 -145 -7
-146 -6 -55 41 82 42 297 187 402 271 282 226 559 527 756 820 54 80 122 202
114 202 -2 0 -42 -46 -88 -102z m-20 -1621 c46 -50 46 -216 0 -358 -31 -95
-29 -93 -75 -59 -115 84 -156 246 -92 362 39 72 124 100 167 55z"/>
<path d="M1790 4063 c0 -17 -3 -40 -6 -50 -3 -10 4 -1 16 19 21 39 47 52 96
46 l29 -3 0 -170 0 -170 -30 -6 c-17 -4 5 -7 55 -7 50 0 72 3 55 7 l-30 6 0
170 0 170 37 3 c49 4 75 -11 87 -51 9 -31 9 -30 10 18 l1 50 -160 0 -160 0 0
-32z"/>
<path d="M3484 4091 c-30 -13 -64 -59 -64 -87 0 -29 39 -75 94 -110 83 -52
102 -128 41 -162 -18 -10 -18 -11 -2 -12 10 0 32 13 48 29 54 54 33 113 -62
175 -66 43 -79 60 -79 105 0 72 98 79 132 11 l18 -35 0 37 c0 20 -4 39 -9 42
-18 11 -96 16 -117 7z"/>
<path d="M3925 4065 c-9 -22 -39 -94 -67 -160 -58 -140 -71 -163 -101 -175
-16 -6 0 -9 53 -8 63 0 70 1 43 9 -40 12 -42 30 -12 100 l21 49 72 0 72 0 27
-57 c36 -77 36 -85 7 -94 -16 -4 1 -7 50 -7 56 -1 69 2 52 9 -17 6 -46 56
-112 191 l-88 183 -17 -40z m43 -100 l32 -65 -64 0 -64 0 26 65 c14 36 28 65
32 65 3 0 20 -29 38 -65z"/>
<path d="M4855 4065 c-9 -22 -39 -94 -67 -160 -58 -140 -71 -163 -101 -175
-16 -6 0 -9 53 -8 63 0 70 1 43 9 -40 12 -42 30 -12 100 l21 49 72 0 72 0 27
-57 c36 -77 36 -85 7 -94 -16 -4 1 -7 50 -7 56 -1 69 2 52 9 -17 6 -46 56
-112 191 l-88 183 -17 -40z m43 -100 l32 -65 -64 0 -64 0 26 65 c14 36 28 65
32 65 3 0 20 -29 38 -65z"/>
<path d="M7625 4065 c-9 -22 -39 -94 -67 -160 -58 -140 -71 -163 -101 -175
-16 -6 0 -9 53 -8 63 0 70 1 43 9 -40 12 -42 30 -12 100 l21 49 72 0 72 0 27
-57 c36 -77 36 -85 7 -94 -16 -4 1 -7 50 -7 56 -1 69 2 52 9 -17 6 -46 56
-112 191 l-88 183 -17 -40z m43 -100 l32 -65 -64 0 -64 0 26 65 c14 36 28 65
32 65 3 0 20 -29 38 -65z"/>
<path d="M8044 4091 c-30 -13 -64 -59 -64 -87 0 -29 39 -75 94 -110 83 -52
102 -128 41 -162 -18 -10 -18 -11 -2 -12 10 0 32 13 48 29 54 54 33 113 -62
175 -66 43 -79 60 -79 105 0 72 98 79 132 11 l18 -35 0 37 c0 20 -4 39 -9 42
-18 11 -96 16 -117 7z"/>
<path d="M2260 4081 l25 -7 0 -169 0 -169 -25 -7 c-15 -4 5 -7 50 -7 45 0 65
3 50 7 -24 7 -25 11 -28 94 l-3 87 116 0 116 0 -3 -87 c-3 -83 -4 -87 -28 -94
-15 -4 5 -7 50 -7 45 0 65 3 50 7 l-25 7 0 169 0 169 25 7 c15 4 -5 7 -50 7
-45 0 -65 -3 -50 -7 24 -6 25 -11 28 -84 l3 -77 -116 0 -116 0 3 77 c3 73 4
78 28 84 15 4 -5 7 -50 7 -45 0 -65 -3 -50 -7z"/>
<path d="M2797 4083 c31 -6 34 -25 31 -193 -3 -143 -3 -145 -28 -157 -21 -11
-7 -13 101 -13 139 0 139 0 139 63 l0 32 -17 -33 c-17 -36 -46 -52 -93 -52
-57 0 -60 5 -60 96 l0 84 43 0 c44 0 70 -13 80 -40 3 -8 6 10 6 40 1 52 0 53
-15 32 -12 -18 -25 -22 -65 -22 l-50 0 3 78 3 77 43 3 c51 4 88 -16 95 -50 2
-13 5 -4 6 20 l1 42 -122 -1 c-68 -1 -113 -4 -101 -6z"/>
<path d="M4249 4077 c14 -6 51 -48 83 -92 l58 -80 -3 -85 c-2 -80 -3 -84 -27
-91 -15 -4 5 -7 50 -7 41 0 66 3 55 5 -30 8 -35 21 -35 101 0 71 1 75 49 145
49 73 74 100 101 110 8 3 -12 5 -45 5 -33 0 -52 -2 -42 -5 9 -2 17 -12 17 -21
0 -13 -77 -142 -85 -142 -5 0 -95 141 -95 149 0 5 6 12 13 14 6 3 -17 6 -53 6
-58 1 -62 -1 -41 -12z"/>
<path d="M5218 4078 c21 -11 22 -15 22 -169 0 -152 -1 -158 -22 -173 -21 -15
-20 -16 32 -15 43 0 50 2 33 9 -17 7 -23 18 -24 42 -2 71 0 261 3 263 2 2 64
-71 138 -161 l135 -164 5 177 c5 177 5 177 30 190 23 12 20 13 -35 12 -33 0
-53 -3 -45 -6 34 -12 40 -36 40 -165 0 -70 -3 -128 -7 -127 -5 0 -62 67 -128
150 -119 149 -119 149 -160 148 -36 0 -38 -1 -17 -11z"/>
<path d="M5915 4081 c13 -5 46 -65 101 -182 44 -96 84 -174 88 -174 4 0 28 50
52 110 88 222 94 233 122 244 23 8 18 9 -33 10 -46 0 -55 -2 -37 -9 12 -5 22
-13 22 -17 0 -11 -102 -266 -110 -276 -7 -8 -130 254 -130 278 0 7 8 16 18 18
9 3 -12 5 -48 5 -41 0 -58 -2 -45 -7z"/>
<path d="M6420 4081 l25 -7 0 -169 0 -169 -25 -7 c-15 -4 5 -7 50 -7 45 0 65
3 50 7 l-25 7 0 169 0 169 25 7 c15 4 -5 7 -50 7 -45 0 -65 -3 -50 -7z"/>
<path d="M6690 4081 l25 -7 0 -169 0 -169 -25 -7 c-14 -4 39 -7 116 -8 139 -1
142 -1 148 22 3 12 6 33 6 47 0 24 -1 24 -16 -6 -8 -17 -26 -36 -40 -43 -35
-16 -119 -14 -133 3 -8 9 -11 64 -9 172 l3 158 25 7 c15 4 -5 7 -50 7 -45 0
-65 -3 -50 -7z"/>
<path d="M7080 4081 l25 -7 0 -169 0 -169 -25 -7 c-14 -4 39 -7 116 -8 139 -1
142 -1 148 22 3 12 6 33 6 47 0 24 -1 24 -16 -6 -8 -17 -26 -36 -40 -43 -35
-16 -119 -14 -133 3 -8 9 -11 64 -9 172 l3 158 25 7 c15 4 -5 7 -50 7 -45 0
-65 -3 -50 -7z"/>
<path d="M3410 3820 c0 -8 3 -31 6 -52 6 -33 10 -37 50 -47 64 -16 75 -12 26
9 -33 15 -47 29 -62 62 -11 24 -20 36 -20 28z"/>
<path d="M7970 3820 c0 -8 3 -31 6 -52 6 -33 10 -37 50 -47 64 -16 75 -12 26
9 -33 15 -47 29 -62 62 -11 24 -20 36 -20 28z"/>
<path d="M4228 3093 c8 -3 12 -34 12 -103 0 -69 -4 -100 -12 -103 -7 -3 22 -6
65 -6 72 -1 77 0 77 21 0 20 -1 20 -18 5 -25 -23 -79 -22 -86 1 -2 9 -5 54 -5
100 l0 82 31 0 c17 0 40 -7 50 -17 17 -15 18 -15 18 5 0 21 -5 22 -72 21 -40
0 -67 -3 -60 -6z"/>
<path d="M4466 3084 c-29 -29 -20 -61 29 -94 54 -37 69 -61 52 -82 -7 -9 -19
-18 -27 -21 -13 -5 -13 -6 1 -6 20 -1 47 20 49 39 5 37 -3 50 -51 85 -38 27
-50 41 -47 58 5 33 65 37 77 5 8 -21 10 -21 16 -4 5 11 3 21 -6 27 -23 14 -76
10 -93 -7z"/>
<path d="M4640 3079 c0 -19 1 -19 16 -5 8 9 26 16 40 16 24 0 24 -1 24 -93 0
-59 -4 -97 -12 -105 -9 -9 -4 -12 22 -12 26 0 31 3 22 12 -8 8 -12 46 -12 105
0 92 0 93 24 93 14 0 32 -7 40 -16 15 -14 16 -14 16 5 0 20 -6 21 -90 21 -84
0 -90 -1 -90 -21z"/>
<path d="M5020 3065 c-17 -20 7 -20 34 0 19 15 19 15 -1 15 -11 0 -26 -7 -33
-15z"/>
<path d="M5088 3073 c15 -6 16 -57 1 -86 -7 -12 -27 -41 -46 -64 l-34 -43 60
0 c46 0 61 3 61 14 0 12 -7 13 -32 5 -68 -19 -74 -12 -29 36 51 56 66 91 52
122 -6 13 -19 23 -28 22 -11 0 -13 -3 -5 -6z"/>
<path d="M5246 3067 c-23 -17 -36 -78 -25 -124 9 -43 31 -63 71 -63 38 0 62
39 62 100 0 51 -24 100 -49 100 -12 0 -10 -5 5 -20 15 -15 20 -33 20 -76 0
-64 -13 -94 -40 -94 -56 0 -69 147 -16 182 7 5 8 8 0 8 -5 0 -18 -6 -28 -13z"/>
<path d="M5450 3065 c-17 -20 7 -20 34 0 19 15 19 15 -1 15 -11 0 -26 -7 -33
-15z"/>
<path d="M5518 3073 c15 -6 16 -57 1 -86 -7 -12 -27 -41 -46 -64 l-34 -43 60
0 c46 0 61 3 61 14 0 12 -7 13 -32 5 -68 -19 -74 -12 -29 36 51 56 66 91 52
122 -6 13 -19 23 -28 22 -11 0 -13 -3 -5 -6z"/>
<path d="M5663 3073 c-16 -6 -17 -23 -2 -23 6 0 17 7 25 15 16 16 4 20 -23 8z"/>
<path d="M5723 3070 c27 -17 20 -48 -15 -70 -29 -17 -30 -20 -11 -20 24 0 53
-24 53 -45 0 -28 -32 -47 -69 -41 -25 4 -31 2 -21 -4 23 -15 63 -12 88 6 30
21 29 59 -3 80 l-26 17 21 14 c30 21 24 67 -10 71 -22 2 -23 1 -7 -8z"/>
<path d="M4305 2997 c-17 -13 -17 -14 4 -20 16 -4 21 -1 21 14 0 23 -1 23 -25
6z"/>
<path d="M4451 2919 c-1 -25 15 -39 42 -39 7 0 4 5 -6 11 -10 6 -22 20 -27 32
-8 21 -9 21 -9 -4z"/>
</g>
</svg>
