<svg width="32" height="32" viewBox="0 0 1000 1000" fill="none" xmlns="http://www.w3.org/2000/svg">
  <!-- Background - dark to show white logo -->
  <rect width="32" height="32" rx="4" fill="#2C2C2C"/>

  <!-- Scaled version of existing logo -->
  <g transform="scale(0.032)">
    <!-- Main palm/villa icon from original logo -->
    <g fill="#FFFFFF">
      <path d="M5469 6828 c-143 -177 -322 -379 -430 -487 -246 -245 -615 -515 -911
      -667 -59 -30 -110 -59 -114 -66 -4 -6 7 -24 26 -41 27 -24 39 -28 69 -24 188
      27 276 30 540 17 149 -8 271 -16 271 -20 0 -4 -42 -53 -93 -111 l-94 -104 -84
      -27 c-223 -71 -424 -101 -694 -102 -113 0 -231 5 -271 12 -140 23 -509 62
      -703 73 -582 33 -1079 -108 -1233 -350 -24 -39 -28 -55 -28 -121 0 -65 3 -80
      21 -96 19 -17 23 -17 47 -3 36 20 38 42 8 82 -47 61 -31 113 60 196 75 69 176
      124 304 165 272 89 541 107 935 62 716 -80 910 -87 1215 -42 96 14 215 37 265
      50 49 14 91 24 92 23 1 -1 -21 -32 -49 -67 -81 -104 -177 -254 -204 -321 -29
      -72 -33 -148 -10 -184 24 -36 31 -31 31 23 0 38 8 61 42 117 62 104 116 176
      110 145 -14 -64 -18 -241 -8 -315 15 -105 45 -164 94 -188 47 -24 76 -17 127
      29 43 39 110 167 155 297 15 43 29 76 30 75 1 -2 -2 -54 -8 -117 -17 -189 14
      -333 81 -377 41 -27 112 -23 160 8 46 31 115 130 172 250 l41 85 75 5 c60 4
      89 12 152 43 64 32 97 58 197 158 138 137 172 163 298 222 108 50 185 77 316
      110 206 52 246 56 681 65 543 11 699 30 944 111 198 66 332 143 423 241 72 79
      88 135 67 232 -12 51 -36 67 -63 42 -28 -25 -26 -47 4 -76 35 -33 34 -85 -3
      -136 -104 -143 -321 -255 -617 -320 -123 -27 -181 -31 -715 -44 -226 -6 -417
      -16 -480 -25 -234 -33 -522 -122 -658 -203 -93 -56 -177 -130 -195 -173 -18
      -46 -129 -139 -216 -182 -46 -22 -82 -32 -128 -35 -34 -3 -63 -2 -63 0 0 3 9
      31 20 63 31 90 53 223 47 291 -9 118 -58 172 -143 159 -117 -17 -185 -174
      -139 -316 21 -65 79 -146 129 -179 44 -30 43 -36 -19 -165 -51 -107 -101 -175
      -150 -205 -49 -31 -81 -21 -94 28 -17 59 -13 252 9 442 12 96 24 207 27 247 6
      71 5 72 -21 84 -23 11 -30 10 -54 -8 -21 -16 -35 -45 -65 -144 -132 -430 -179
      -534 -251 -559 -26 -9 -33 -7 -51 10 -37 38 -23 310 31 576 4 21 1 36 -10 46
      -14 15 -7 26 77 124 84 98 114 128 186 186 11 10 21 26 21 36 0 10 15 33 34
      51 32 31 37 32 152 41 65 6 156 19 202 30 109 26 244 88 240 109 -6 28 -35 23
      -82 -12 -25 -19 -73 -44 -108 -56 -76 -24 -213 -43 -285 -39 l-53 3 271 280
      c297 307 501 533 496 550 -2 5 -16 14 -31 20 -26 9 -39 -2 -325 -290 -163
      -165 -354 -360 -424 -433 l-126 -133 -243 12 c-134 6 -304 8 -378 5 -145 -7
      -146 -6 -55 41 82 42 297 187 402 271 282 226 559 527 756 820 54 80 122 202
      114 202 -2 0 -42 -46 -88 -102z m-20 -1621 c46 -50 46 -216 0 -358 -31 -95
      -29 -93 -75 -59 -115 84 -156 246 -92 362 39 72 124 100 167 55z"/>
    </g>
  </g>
</svg>