<svg width="16" height="16" viewBox="0 0 1000 1000" fill="none" xmlns="http://www.w3.org/2000/svg">
  <!-- Background - dark to show white logo -->
  <rect width="16" height="16" rx="2" fill="#2C2C2C"/>

  <!-- Simplified palm icon from original logo -->
  <g transform="scale(0.016) translate(200, 200)">
    <path fill="#FFFFFF" d="M5469 6828 c-143 -177 -322 -379 -430 -487 -246 -245 -615 -515 -911
    -667 -59 -30 -110 -59 -114 -66 -4 -6 7 -24 26 -41 27 -24 39 -28 69 -24 188
    27 276 30 540 17 149 -8 271 -16 271 -20 0 -4 -42 -53 -93 -111 l-94 -104 -84
    -27 c-223 -71 -424 -101 -694 -102 -113 0 -231 5 -271 12 -140 23 -509 62
    -703 73 -582 33 -1079 -108 -1233 -350 -24 -39 -28 -55 -28 -121 0 -65 3 -80
    21 -96 19 -17 23 -17 47 -3 36 20 38 42 8 82 -47 61 -31 113 60 196 75 69 176
    124 304 165 272 89 541 107 935 62 716 -80 910 -87 1215 -42 96 14 215 37 265
    50 49 14 91 24 92 23 1 -1 -21 -32 -49 -67 -81 -104 -177 -254 -204 -321 -29z"/>
  </g>
</svg>